# xmcd
#
# Track frame offsets: 
#        150
#        12840
#        27720
#        41940
#        54852
#        63722
#        77157
#        86955
#        98485
#        110140
#        120862
#        132430
#        144135
#        160205
#
# Disc length: 2268 seconds
#
# Revision: 3
# Processed by: cddbd v1.4PL0 Copyright (c) Steve Scherf et al.
# Submitted via: ExactAudioCopy v0.90b4
#
DISCID=bb08da0e
DTITLE=Cristina Branco - Murmúrios
DYEAR=1999
DGENRE=Fado
TTITLE0=Fado Perdição
TTITLE1=Abandono
TTITLE2=As Certezas do Meu Mais Brilhante Amor
TTITLE3=Saudade
TTITLE4=Mágoa
TTITLE5=Fim
TTITLE6=Canto Ainda Por Alguém
TTITLE7=Lírios
TTITLE8=Há Palavras Que Nos Beijam
TTITLE9=Quisera Lavar o Pensamento
TTITLE10=Murmúrios
TTITLE11=Fado das Sedes
TTITLE12=Arc' Antiga
TTITLE13=Pombas Brancas
EXTD=\nYEAR: 1999  ID3G:  80
EXTT0=
EXTT1=
EXTT2=
EXTT3=
EXTT4=
EXTT5=
EXTT6=
EXTT7=
EXTT8=
EXTT9=
EXTT10=
EXTT11=
EXTT12=
EXTT13=
PLAYORDER=
